<svg width="1024" height="329" viewBox="0 0 1024 329" fill="none" xmlns="http://www.w3.org/2000/svg">
<g clip-path="url(#clip0_370_3)">
<rect width="1024" height="329" fill="#0B0B0B"/>
<path d="M288 329L464.678 161.758H512.175L729 0L577.363 161.758H512.175L508.5 164.5L288 329Z" fill="#1E1E1E" stroke="#1E1E1E"/>
<path d="M58.666 96.91V103H55.012C52.408 103 50.378 102.37 48.922 101.11C47.466 99.822 46.738 97.736 46.738 94.852V85.528H43.882V79.564H46.738V73.852H53.92V79.564H58.624V85.528H53.92V94.936C53.92 95.636 54.088 96.14 54.424 96.448C54.76 96.756 55.32 96.91 56.104 96.91H58.666ZM69.8485 83.47C70.6885 82.182 71.7385 81.174 72.9985 80.446C74.2585 79.69 75.6585 79.312 77.1985 79.312V86.914H75.2245C73.4325 86.914 72.0885 87.306 71.1925 88.09C70.2965 88.846 69.8485 90.19 69.8485 92.122V103H62.6665V79.564H69.8485V83.47ZM79.2033 91.24C79.2033 88.832 79.6513 86.718 80.5473 84.898C81.4713 83.078 82.7173 81.678 84.2853 80.698C85.8533 79.718 87.6033 79.228 89.5353 79.228C91.1873 79.228 92.6293 79.564 93.8613 80.236C95.1213 80.908 96.0873 81.79 96.7593 82.882V79.564H103.941V103H96.7593V99.682C96.0593 100.774 95.0793 101.656 93.8193 102.328C92.5873 103 91.1453 103.336 89.4933 103.336C87.5893 103.336 85.8533 102.846 84.2853 101.866C82.7173 100.858 81.4713 99.444 80.5473 97.624C79.6513 95.776 79.2033 93.648 79.2033 91.24ZM96.7593 91.282C96.7593 89.49 96.2553 88.076 95.2473 87.04C94.2673 86.004 93.0633 85.486 91.6353 85.486C90.2073 85.486 88.9893 86.004 87.9813 87.04C87.0013 88.048 86.5113 89.448 86.5113 91.24C86.5113 93.032 87.0013 94.46 87.9813 95.524C88.9893 96.56 90.2073 97.078 91.6353 97.078C93.0633 97.078 94.2673 96.56 95.2473 95.524C96.2553 94.488 96.7593 93.074 96.7593 91.282ZM107.709 91.24C107.709 88.832 108.157 86.718 109.053 84.898C109.977 83.078 111.223 81.678 112.791 80.698C114.359 79.718 116.109 79.228 118.041 79.228C119.581 79.228 120.981 79.55 122.241 80.194C123.529 80.838 124.537 81.706 125.265 82.798V71.92H132.447V103H125.265V99.64C124.593 100.76 123.627 101.656 122.367 102.328C121.135 103 119.693 103.336 118.041 103.336C116.109 103.336 114.359 102.846 112.791 101.866C111.223 100.858 109.977 99.444 109.053 97.624C108.157 95.776 107.709 93.648 107.709 91.24ZM125.265 91.282C125.265 89.49 124.761 88.076 123.753 87.04C122.773 86.004 121.569 85.486 120.141 85.486C118.713 85.486 117.495 86.004 116.487 87.04C115.507 88.048 115.017 89.448 115.017 91.24C115.017 93.032 115.507 94.46 116.487 95.524C117.495 96.56 118.713 97.078 120.141 97.078C121.569 97.078 122.773 96.56 123.753 95.524C124.761 94.488 125.265 93.074 125.265 91.282ZM141.255 77.128C139.995 77.128 138.959 76.764 138.147 76.036C137.363 75.28 136.971 74.356 136.971 73.264C136.971 72.144 137.363 71.22 138.147 70.492C138.959 69.736 139.995 69.358 141.255 69.358C142.487 69.358 143.495 69.736 144.279 70.492C145.091 71.22 145.497 72.144 145.497 73.264C145.497 74.356 145.091 75.28 144.279 76.036C143.495 76.764 142.487 77.128 141.255 77.128ZM144.825 79.564V103H137.643V79.564H144.825ZM164.31 79.312C167.054 79.312 169.238 80.208 170.862 82C172.514 83.764 173.34 86.2 173.34 89.308V103H166.2V90.274C166.2 88.706 165.794 87.488 164.982 86.62C164.17 85.752 163.078 85.318 161.706 85.318C160.334 85.318 159.242 85.752 158.43 86.62C157.618 87.488 157.212 88.706 157.212 90.274V103H150.03V79.564H157.212V82.672C157.94 81.636 158.92 80.824 160.152 80.236C161.384 79.62 162.77 79.312 164.31 79.312ZM187.235 79.228C188.887 79.228 190.329 79.564 191.561 80.236C192.821 80.908 193.787 81.79 194.459 82.882V79.564H201.641V102.958C201.641 105.114 201.207 107.06 200.339 108.796C199.499 110.56 198.197 111.96 196.433 112.996C194.697 114.032 192.527 114.55 189.923 114.55C186.451 114.55 183.637 113.724 181.481 112.072C179.325 110.448 178.093 108.236 177.785 105.436H184.883C185.107 106.332 185.639 107.032 186.479 107.536C187.319 108.068 188.355 108.334 189.587 108.334C191.071 108.334 192.247 107.9 193.115 107.032C194.011 106.192 194.459 104.834 194.459 102.958V99.64C193.759 100.732 192.793 101.628 191.561 102.328C190.329 103 188.887 103.336 187.235 103.336C185.303 103.336 183.553 102.846 181.985 101.866C180.417 100.858 179.171 99.444 178.247 97.624C177.351 95.776 176.903 93.648 176.903 91.24C176.903 88.832 177.351 86.718 178.247 84.898C179.171 83.078 180.417 81.678 181.985 80.698C183.553 79.718 185.303 79.228 187.235 79.228ZM194.459 91.282C194.459 89.49 193.955 88.076 192.947 87.04C191.967 86.004 190.763 85.486 189.335 85.486C187.907 85.486 186.689 86.004 185.681 87.04C184.701 88.048 184.211 89.448 184.211 91.24C184.211 93.032 184.701 94.46 185.681 95.524C186.689 96.56 187.907 97.078 189.335 97.078C190.763 97.078 191.967 96.56 192.947 95.524C193.955 94.488 194.459 93.074 194.459 91.282ZM214.309 91.24C214.309 88.832 214.757 86.718 215.653 84.898C216.577 83.078 217.823 81.678 219.391 80.698C220.959 79.718 222.709 79.228 224.641 79.228C226.293 79.228 227.735 79.564 228.967 80.236C230.227 80.908 231.193 81.79 231.865 82.882V79.564H239.047V103H231.865V99.682C231.165 100.774 230.185 101.656 228.925 102.328C227.693 103 226.251 103.336 224.599 103.336C222.695 103.336 220.959 102.846 219.391 101.866C217.823 100.858 216.577 99.444 215.653 97.624C214.757 95.776 214.309 93.648 214.309 91.24ZM231.865 91.282C231.865 89.49 231.361 88.076 230.353 87.04C229.373 86.004 228.169 85.486 226.741 85.486C225.313 85.486 224.095 86.004 223.087 87.04C222.107 88.048 221.617 89.448 221.617 91.24C221.617 93.032 222.107 94.46 223.087 95.524C224.095 96.56 225.313 97.078 226.741 97.078C228.169 97.078 229.373 96.56 230.353 95.524C231.361 94.488 231.865 93.074 231.865 91.282ZM253.777 103.336C251.733 103.336 249.913 102.986 248.317 102.286C246.721 101.586 245.461 100.634 244.537 99.43C243.613 98.198 243.095 96.826 242.983 95.314H250.081C250.165 96.126 250.543 96.784 251.215 97.288C251.887 97.792 252.713 98.044 253.693 98.044C254.589 98.044 255.275 97.876 255.751 97.54C256.255 97.176 256.507 96.714 256.507 96.154C256.507 95.482 256.157 94.992 255.457 94.684C254.757 94.348 253.623 93.984 252.055 93.592C250.375 93.2 248.975 92.794 247.855 92.374C246.735 91.926 245.769 91.24 244.957 90.316C244.145 89.364 243.739 88.09 243.739 86.494C243.739 85.15 244.103 83.932 244.831 82.84C245.587 81.72 246.679 80.838 248.107 80.194C249.563 79.55 251.285 79.228 253.273 79.228C256.213 79.228 258.523 79.956 260.203 81.412C261.911 82.868 262.891 84.8 263.143 87.208H256.507C256.395 86.396 256.031 85.752 255.415 85.276C254.827 84.8 254.043 84.562 253.063 84.562C252.223 84.562 251.579 84.73 251.131 85.066C250.683 85.374 250.459 85.808 250.459 86.368C250.459 87.04 250.809 87.544 251.509 87.88C252.237 88.216 253.357 88.552 254.869 88.888C256.605 89.336 258.019 89.784 259.111 90.232C260.203 90.652 261.155 91.352 261.967 92.332C262.807 93.284 263.241 94.572 263.269 96.196C263.269 97.568 262.877 98.8 262.093 99.892C261.337 100.956 260.231 101.796 258.775 102.412C257.347 103.028 255.681 103.336 253.777 103.336Z" fill="url(#paint0_linear_370_3)"/>
<path d="M90.76 152.92C90.76 156.173 90.0133 159.16 88.52 161.88C87.0267 164.547 84.7333 166.707 81.64 168.36C78.5467 170.013 74.7067 170.84 70.12 170.84H61.64V191H47.96V134.84H70.12C74.6 134.84 78.3867 135.613 81.48 137.16C84.5733 138.707 86.8933 140.84 88.44 143.56C89.9867 146.28 90.76 149.4 90.76 152.92ZM69.08 159.96C71.6933 159.96 73.64 159.347 74.92 158.12C76.2 156.893 76.84 155.16 76.84 152.92C76.84 150.68 76.2 148.947 74.92 147.72C73.64 146.493 71.6933 145.88 69.08 145.88H61.64V159.96H69.08ZM124.922 191L113.242 169.8H109.962V191H96.2819V134.84H119.242C123.669 134.84 127.429 135.613 130.522 137.16C133.669 138.707 136.015 140.84 137.562 143.56C139.109 146.227 139.882 149.213 139.882 152.52C139.882 156.253 138.815 159.587 136.682 162.52C134.602 165.453 131.509 167.533 127.402 168.76L140.362 191H124.922ZM109.962 160.12H118.442C120.949 160.12 122.815 159.507 124.042 158.28C125.322 157.053 125.962 155.32 125.962 153.08C125.962 150.947 125.322 149.267 124.042 148.04C122.815 146.813 120.949 146.2 118.442 146.2H109.962V160.12ZM173.429 191.56C168.149 191.56 163.296 190.333 158.869 187.88C154.496 185.427 151.003 182.013 148.389 177.64C145.829 173.213 144.549 168.253 144.549 162.76C144.549 157.267 145.829 152.333 148.389 147.96C151.003 143.587 154.496 140.173 158.869 137.72C163.296 135.267 168.149 134.04 173.429 134.04C178.709 134.04 183.536 135.267 187.909 137.72C192.336 140.173 195.803 143.587 198.309 147.96C200.869 152.333 202.149 157.267 202.149 162.76C202.149 168.253 200.869 173.213 198.309 177.64C195.749 182.013 192.283 185.427 187.909 187.88C183.536 190.333 178.709 191.56 173.429 191.56ZM173.429 179.08C177.909 179.08 181.483 177.587 184.149 174.6C186.869 171.613 188.229 167.667 188.229 162.76C188.229 157.8 186.869 153.853 184.149 150.92C181.483 147.933 177.909 146.44 173.429 146.44C168.896 146.44 165.269 147.907 162.549 150.84C159.883 153.773 158.549 157.747 158.549 162.76C158.549 167.72 159.883 171.693 162.549 174.68C165.269 177.613 168.896 179.08 173.429 179.08ZM244.72 134.84V145.8H221.84V157.64H238.96V168.28H221.84V191H208.16V134.84H244.72ZM263.99 145.8V157.16H282.31V167.72H263.99V180.04H284.71V191H250.31V134.84H284.71V145.8H263.99ZM312.311 191.56C308.205 191.56 304.525 190.893 301.271 189.56C298.018 188.227 295.405 186.253 293.431 183.64C291.511 181.027 290.498 177.88 290.391 174.2H304.951C305.165 176.28 305.885 177.88 307.111 179C308.338 180.067 309.938 180.6 311.911 180.6C313.938 180.6 315.538 180.147 316.711 179.24C317.885 178.28 318.471 176.973 318.471 175.32C318.471 173.933 317.991 172.787 317.031 171.88C316.125 170.973 314.978 170.227 313.591 169.64C312.258 169.053 310.338 168.387 307.831 167.64C304.205 166.52 301.245 165.4 298.951 164.28C296.658 163.16 294.685 161.507 293.031 159.32C291.378 157.133 290.551 154.28 290.551 150.76C290.551 145.533 292.445 141.453 296.231 138.52C300.018 135.533 304.951 134.04 311.031 134.04C317.218 134.04 322.205 135.533 325.991 138.52C329.778 141.453 331.805 145.56 332.071 150.84H317.271C317.165 149.027 316.498 147.613 315.271 146.6C314.045 145.533 312.471 145 310.551 145C308.898 145 307.565 145.453 306.551 146.36C305.538 147.213 305.031 148.467 305.031 150.12C305.031 151.933 305.885 153.347 307.591 154.36C309.298 155.373 311.965 156.467 315.591 157.64C319.218 158.867 322.151 160.04 324.391 161.16C326.685 162.28 328.658 163.907 330.311 166.04C331.965 168.173 332.791 170.92 332.791 174.28C332.791 177.48 331.965 180.387 330.311 183C328.711 185.613 326.365 187.693 323.271 189.24C320.178 190.787 316.525 191.56 312.311 191.56ZM359.93 191.56C355.823 191.56 352.143 190.893 348.89 189.56C345.637 188.227 343.023 186.253 341.05 183.64C339.13 181.027 338.117 177.88 338.01 174.2H352.57C352.783 176.28 353.503 177.88 354.73 179C355.957 180.067 357.557 180.6 359.53 180.6C361.557 180.6 363.157 180.147 364.33 179.24C365.503 178.28 366.09 176.973 366.09 175.32C366.09 173.933 365.61 172.787 364.65 171.88C363.743 170.973 362.597 170.227 361.21 169.64C359.877 169.053 357.957 168.387 355.45 167.64C351.823 166.52 348.863 165.4 346.57 164.28C344.277 163.16 342.303 161.507 340.65 159.32C338.997 157.133 338.17 154.28 338.17 150.76C338.17 145.533 340.063 141.453 343.85 138.52C347.637 135.533 352.57 134.04 358.65 134.04C364.837 134.04 369.823 135.533 373.61 138.52C377.397 141.453 379.423 145.56 379.69 150.84H364.89C364.783 149.027 364.117 147.613 362.89 146.6C361.663 145.533 360.09 145 358.17 145C356.517 145 355.183 145.453 354.17 146.36C353.157 147.213 352.65 148.467 352.65 150.12C352.65 151.933 353.503 153.347 355.21 154.36C356.917 155.373 359.583 156.467 363.21 157.64C366.837 158.867 369.77 160.04 372.01 161.16C374.303 162.28 376.277 163.907 377.93 166.04C379.583 168.173 380.41 170.92 380.41 174.28C380.41 177.48 379.583 180.387 377.93 183C376.33 185.613 373.983 187.693 370.89 189.24C367.797 190.787 364.143 191.56 359.93 191.56ZM400.909 134.84V191H387.229V134.84H400.909ZM435.783 191.56C430.503 191.56 425.649 190.333 421.223 187.88C416.849 185.427 413.356 182.013 410.743 177.64C408.183 173.213 406.903 168.253 406.903 162.76C406.903 157.267 408.183 152.333 410.743 147.96C413.356 143.587 416.849 140.173 421.223 137.72C425.649 135.267 430.503 134.04 435.783 134.04C441.063 134.04 445.889 135.267 450.263 137.72C454.689 140.173 458.156 143.587 460.663 147.96C463.223 152.333 464.503 157.267 464.503 162.76C464.503 168.253 463.223 173.213 460.663 177.64C458.103 182.013 454.636 185.427 450.263 187.88C445.889 190.333 441.063 191.56 435.783 191.56ZM435.783 179.08C440.263 179.08 443.836 177.587 446.503 174.6C449.223 171.613 450.583 167.667 450.583 162.76C450.583 157.8 449.223 153.853 446.503 150.92C443.836 147.933 440.263 146.44 435.783 146.44C431.249 146.44 427.623 147.907 424.903 150.84C422.236 153.773 420.903 157.747 420.903 162.76C420.903 167.72 422.236 171.693 424.903 174.68C427.623 177.613 431.249 179.08 435.783 179.08ZM520.753 191H507.073L484.193 156.36V191H470.513V134.84H484.193L507.073 169.64V134.84H520.753V191ZM591.462 78.68C603.302 78.68 613.649 81.0267 622.503 85.72C631.356 90.4133 638.183 97.0267 642.982 105.56C647.889 113.987 650.342 123.747 650.342 134.84C650.342 145.827 647.889 155.587 642.982 164.12C638.183 172.653 631.303 179.267 622.342 183.96C613.489 188.653 603.196 191 591.462 191H549.382V78.68H591.462ZM589.702 167.32C600.049 167.32 608.102 164.493 613.862 158.84C619.623 153.187 622.503 145.187 622.503 134.84C622.503 124.493 619.623 116.44 613.862 110.68C608.102 104.92 600.049 102.04 589.702 102.04H576.742V167.32H589.702ZM732.353 171.16H690.433L683.713 191H655.073L695.713 78.68H727.393L768.033 191H739.073L732.353 171.16ZM725.313 150.04L711.393 108.92L697.633 150.04H725.313ZM858.001 78.68V100.6H828.241V191H800.881V100.6H771.121V78.68H858.001ZM938.452 171.16H896.532L889.812 191H861.172L901.812 78.68H933.492L974.132 191H945.172L938.452 171.16ZM931.412 150.04L917.492 108.92L903.732 150.04H931.412Z" fill="url(#paint1_linear_370_3)"/>
<path d="M600 162C594.43 166.509 589.074 167.465 577 167.396V192.755C586.619 193.358 591.678 192.922 600 190.597V162Z" fill="#0B0B0B" stroke="#0B0B0B" stroke-width="0.6"/>
<path d="M595.152 234.6C596.016 232.776 597.344 231.288 599.136 230.136C600.96 228.984 603.104 228.408 605.568 228.408C607.968 228.408 610.112 228.968 612 230.088C613.888 231.176 615.36 232.744 616.416 234.792C617.504 236.808 618.048 239.16 618.048 241.848C618.048 244.536 617.504 246.904 616.416 248.952C615.36 251 613.872 252.584 611.952 253.704C610.064 254.824 607.936 255.384 605.568 255.384C603.072 255.384 600.912 254.824 599.088 253.704C597.296 252.552 595.984 251.064 595.152 249.24V255H591.84V219.48H595.152V234.6ZM614.64 241.848C614.64 239.672 614.208 237.8 613.344 236.232C612.512 234.632 611.36 233.416 609.888 232.584C608.416 231.752 606.752 231.336 604.896 231.336C603.104 231.336 601.456 231.768 599.952 232.632C598.48 233.496 597.312 234.728 596.448 236.328C595.584 237.928 595.152 239.784 595.152 241.896C595.152 244.008 595.584 245.864 596.448 247.464C597.312 249.064 598.48 250.296 599.952 251.16C601.456 252.024 603.104 252.456 604.896 252.456C606.752 252.456 608.416 252.04 609.888 251.208C611.36 250.344 612.512 249.112 613.344 247.512C614.208 245.88 614.64 243.992 614.64 241.848ZM645.831 228.792L630.279 267.336H626.775L631.863 254.856L621.111 228.792H624.807L633.735 251.16L642.375 228.792H645.831ZM689.959 231.24C688.999 229.032 687.527 227.304 685.543 226.056C683.591 224.776 681.287 224.136 678.631 224.136C676.135 224.136 673.895 224.712 671.911 225.864C669.927 227.016 668.359 228.664 667.207 230.808C666.055 232.92 665.479 235.384 665.479 238.2C665.479 241.016 666.055 243.496 667.207 245.64C668.359 247.784 669.927 249.432 671.911 250.584C673.895 251.736 676.135 252.312 678.631 252.312C680.967 252.312 683.063 251.816 684.919 250.824C686.807 249.8 688.311 248.36 689.431 246.504C690.583 244.616 691.239 242.424 691.399 239.928H677.287V237.192H694.951V239.64C694.791 242.584 693.991 245.256 692.551 247.656C691.111 250.024 689.175 251.896 686.743 253.272C684.343 254.648 681.639 255.336 678.631 255.336C675.527 255.336 672.711 254.616 670.183 253.176C667.655 251.704 665.655 249.672 664.183 247.08C662.743 244.456 662.023 241.496 662.023 238.2C662.023 234.904 662.743 231.96 664.183 229.368C665.655 226.744 667.655 224.712 670.183 223.272C672.711 221.8 675.527 221.064 678.631 221.064C682.215 221.064 685.351 221.96 688.039 223.752C690.727 225.544 692.679 228.04 693.895 231.24H689.959ZM723.81 228.792V255H720.45V250.392C719.682 252.024 718.498 253.272 716.898 254.136C715.298 255 713.506 255.432 711.522 255.432C708.386 255.432 705.826 254.472 703.842 252.552C701.858 250.6 700.866 247.784 700.866 244.104V228.792H704.178V243.72C704.178 246.568 704.882 248.744 706.29 250.248C707.73 251.752 709.682 252.504 712.146 252.504C714.674 252.504 716.69 251.704 718.194 250.104C719.698 248.504 720.45 246.152 720.45 243.048V228.792H723.81ZM743.769 228.312C746.905 228.312 749.465 229.288 751.449 231.24C753.433 233.16 754.425 235.96 754.425 239.64V255H751.113V240.024C751.113 237.176 750.393 235 748.953 233.496C747.545 231.992 745.609 231.24 743.145 231.24C740.617 231.24 738.601 232.04 737.097 233.64C735.593 235.24 734.841 237.592 734.841 240.696V255H731.481V228.792H734.841V233.256C735.673 231.656 736.873 230.44 738.441 229.608C740.009 228.744 741.785 228.312 743.769 228.312ZM763.776 223.848C763.104 223.848 762.528 223.608 762.048 223.128C761.568 222.648 761.328 222.056 761.328 221.352C761.328 220.648 761.568 220.072 762.048 219.624C762.528 219.144 763.104 218.904 763.776 218.904C764.448 218.904 765.008 219.144 765.456 219.624C765.936 220.072 766.176 220.648 766.176 221.352C766.176 222.056 765.936 222.648 765.456 223.128C765.008 223.608 764.448 223.848 763.776 223.848ZM765.408 261.192C765.408 263.304 764.88 264.856 763.824 265.848C762.768 266.872 761.184 267.384 759.072 267.384H756.72V264.504H758.544C759.792 264.504 760.688 264.232 761.232 263.688C761.776 263.176 762.048 262.296 762.048 261.048V228.792H765.408V261.192ZM771.57 241.848C771.57 239.16 772.098 236.808 773.154 234.792C774.242 232.744 775.73 231.176 777.618 230.088C779.538 228.968 781.698 228.408 784.098 228.408C786.594 228.408 788.738 228.984 790.53 230.136C792.354 231.288 793.666 232.76 794.466 234.552V228.792H797.826V255H794.466V249.192C793.634 250.984 792.306 252.472 790.482 253.656C788.69 254.808 786.546 255.384 784.05 255.384C781.682 255.384 779.538 254.824 777.618 253.704C775.73 252.584 774.242 251 773.154 248.952C772.098 246.904 771.57 244.536 771.57 241.848ZM794.466 241.896C794.466 239.784 794.034 237.928 793.17 236.328C792.306 234.728 791.122 233.496 789.618 232.632C788.146 231.768 786.514 231.336 784.722 231.336C782.866 231.336 781.202 231.752 779.73 232.584C778.258 233.416 777.09 234.632 776.226 236.232C775.394 237.8 774.978 239.672 774.978 241.848C774.978 243.992 775.394 245.88 776.226 247.512C777.09 249.112 778.258 250.344 779.73 251.208C781.202 252.04 782.866 252.456 784.722 252.456C786.514 252.456 788.146 252.024 789.618 251.16C791.122 250.296 792.306 249.064 793.17 247.464C794.034 245.864 794.466 244.008 794.466 241.896ZM817.784 228.312C820.92 228.312 823.48 229.288 825.464 231.24C827.448 233.16 828.44 235.96 828.44 239.64V255H825.128V240.024C825.128 237.176 824.408 235 822.968 233.496C821.56 231.992 819.624 231.24 817.16 231.24C814.632 231.24 812.616 232.04 811.112 233.64C809.608 235.24 808.856 237.592 808.856 240.696V255H805.496V228.792H808.856V233.256C809.688 231.656 810.888 230.44 812.456 229.608C814.024 228.744 815.8 228.312 817.784 228.312ZM868.483 247.032H853.219L850.291 255H846.739L858.979 221.88H862.771L874.963 255H871.411L868.483 247.032ZM867.475 244.248L860.851 226.104L854.227 244.248H867.475ZM883.716 233.448C884.452 231.816 885.572 230.552 887.076 229.656C888.612 228.76 890.484 228.312 892.692 228.312V231.816H891.78C889.348 231.816 887.396 232.472 885.924 233.784C884.452 235.096 883.716 237.288 883.716 240.36V255H880.356V228.792H883.716V233.448ZM909.218 255.384C906.754 255.384 904.53 254.84 902.546 253.752C900.594 252.632 899.042 251.064 897.89 249.048C896.77 247 896.21 244.616 896.21 241.896C896.21 239.176 896.786 236.808 897.938 234.792C899.09 232.744 900.658 231.176 902.642 230.088C904.626 228.968 906.85 228.408 909.314 228.408C911.778 228.408 914.002 228.968 915.986 230.088C918.002 231.176 919.57 232.744 920.69 234.792C921.842 236.808 922.418 239.176 922.418 241.896C922.418 244.584 921.842 246.952 920.69 249C919.538 251.048 917.954 252.632 915.938 253.752C913.922 254.84 911.682 255.384 909.218 255.384ZM909.218 252.456C910.946 252.456 912.546 252.072 914.018 251.304C915.49 250.504 916.674 249.32 917.57 247.752C918.498 246.152 918.962 244.2 918.962 241.896C918.962 239.592 918.514 237.656 917.618 236.088C916.722 234.488 915.538 233.304 914.066 232.536C912.594 231.736 910.994 231.336 909.266 231.336C907.538 231.336 905.938 231.736 904.466 232.536C902.994 233.304 901.81 234.488 900.914 236.088C900.05 237.656 899.618 239.592 899.618 241.896C899.618 244.2 900.05 246.152 900.914 247.752C901.81 249.32 902.978 250.504 904.418 251.304C905.89 252.072 907.49 252.456 909.218 252.456ZM931.903 233.448C932.639 231.816 933.759 230.552 935.263 229.656C936.799 228.76 938.671 228.312 940.879 228.312V231.816H939.967C937.535 231.816 935.583 232.472 934.111 233.784C932.639 235.096 931.903 237.288 931.903 240.36V255H928.543V228.792H931.903V233.448ZM944.398 241.848C944.398 239.16 944.926 236.808 945.982 234.792C947.07 232.744 948.558 231.176 950.446 230.088C952.366 228.968 954.526 228.408 956.926 228.408C959.422 228.408 961.566 228.984 963.358 230.136C965.182 231.288 966.494 232.76 967.294 234.552V228.792H970.654V255H967.294V249.192C966.462 250.984 965.134 252.472 963.31 253.656C961.518 254.808 959.374 255.384 956.878 255.384C954.51 255.384 952.366 254.824 950.446 253.704C948.558 252.584 947.07 251 945.982 248.952C944.926 246.904 944.398 244.536 944.398 241.848ZM967.294 241.896C967.294 239.784 966.862 237.928 965.998 236.328C965.134 234.728 963.95 233.496 962.446 232.632C960.974 231.768 959.342 231.336 957.55 231.336C955.694 231.336 954.03 231.752 952.558 232.584C951.086 233.416 949.918 234.632 949.054 236.232C948.222 237.8 947.806 239.672 947.806 241.848C947.806 243.992 948.222 245.88 949.054 247.512C949.918 249.112 951.086 250.344 952.558 251.208C954.03 252.04 955.694 252.456 957.55 252.456C959.342 252.456 960.974 252.024 962.446 251.16C963.95 250.296 965.134 249.064 965.998 247.464C966.862 245.864 967.294 244.008 967.294 241.896Z" fill="#F8F8F8"/>
<line x1="278" y1="88" x2="518" y2="88" stroke="white" stroke-width="2"/>
<line x1="48" y1="239" x2="568" y2="239" stroke="white" stroke-width="2"/>
<path d="M691 171L698 150H725L732 171H691Z" fill="#0B0B0B" stroke="#0B0B0B" stroke-width="0.62"/>
<path d="M897 171L904 150H931L938 171H897Z" fill="#0B0B0B" stroke="#0B0B0B" stroke-width="0.62"/>
</g>
<defs>
<linearGradient id="paint0_linear_370_3" x1="54.0183" y1="88.5" x2="169.365" y2="201.683" gradientUnits="userSpaceOnUse">
<stop stop-color="white"/>
<stop offset="1" stop-color="#9596C9"/>
</linearGradient>
<linearGradient id="paint1_linear_370_3" x1="89" y1="135" x2="527.339" y2="606.365" gradientUnits="userSpaceOnUse">
<stop stop-color="white"/>
<stop offset="1" stop-color="#9596C9"/>
</linearGradient>
<clipPath id="clip0_370_3">
<rect width="1024" height="329" fill="white"/>
</clipPath>
</defs>
</svg>
