<svg width="21" height="21" viewBox="0 0 21 21" fill="none" xmlns="http://www.w3.org/2000/svg">
<g clip-path="url(#clip0_2057_3801)">
<path d="M10.0897 3.28935C7.3314 3.28935 5.08974 5.53742 5.08974 8.30364V10.7189C5.08974 11.2286 4.87307 12.0059 4.61474 12.4404L3.6564 14.0366C3.06474 15.0228 3.47307 16.1176 4.5564 16.4853C8.14807 17.6887 12.0231 17.6887 15.6147 16.4853C16.6231 16.151 17.0647 14.9559 16.5147 14.0366L15.5564 12.4404C15.3064 12.0059 15.0897 11.2286 15.0897 10.7189V8.30364C15.0897 5.54578 12.8397 3.28935 10.0897 3.28935Z" stroke="black" stroke-width="1.5" stroke-miterlimit="10" stroke-linecap="round"/>
<path d="M11.6302 3.53171C10.6225 3.24388 9.55462 3.24388 8.54688 3.53171C8.78854 2.91328 9.38854 2.47871 10.0885 2.47871C10.7885 2.47871 11.3885 2.91328 11.6302 3.53171Z" stroke="black" stroke-width="1.5" stroke-miterlimit="10" stroke-linecap="round" stroke-linejoin="round"/>
<path d="M12.5898 16.7861C12.5898 18.1651 11.4648 19.2933 10.0898 19.2933C9.40651 19.2933 8.77318 19.0091 8.32318 18.5578C7.85497 18.0876 7.59134 17.4507 7.58984 16.7861" stroke="black" stroke-width="1.5" stroke-miterlimit="10"/>
</g>
<defs>
<clipPath id="clip0_2057_3801">
<rect width="20" height="20.0571" fill="white" transform="translate(0.0722656 0.857422)"/>
</clipPath>
</defs>
</svg>
