<svg width="20" height="20" viewBox="0 0 20 20" fill="none" xmlns="http://www.w3.org/2000/svg">
<g clip-path="url(#clip0_2195_4599)">
<path d="M10 4.6875C8.94929 4.6875 7.92217 4.99907 7.04853 5.58282C6.1749 6.16656 5.49398 6.99626 5.09189 7.96699C4.6898 8.93773 4.58459 10.0059 4.78958 11.0364C4.99456 12.0669 5.50053 13.0135 6.2435 13.7565C6.98646 14.4995 7.93306 15.0054 8.96358 15.2104C9.99411 15.4154 11.0623 15.3102 12.033 14.9081C13.0037 14.506 13.8334 13.8251 14.4172 12.9515C15.0009 12.0778 15.3125 11.0507 15.3125 10C15.3104 8.59167 14.7501 7.24162 13.7542 6.24578C12.7584 5.24994 11.4083 4.68957 10 4.6875ZM10 14.0625C9.19651 14.0625 8.41107 13.8242 7.743 13.3778C7.07492 12.9315 6.55422 12.297 6.24674 11.5547C5.93926 10.8123 5.85881 9.99549 6.01556 9.20745C6.17231 8.4194 6.55923 7.69553 7.12738 7.12738C7.69553 6.55923 8.4194 6.17231 9.20745 6.01556C9.99549 5.85881 10.8123 5.93926 11.5547 6.24674C12.297 6.55422 12.9315 7.07492 13.3778 7.743C13.8242 8.41107 14.0625 9.19651 14.0625 10C14.0625 11.0774 13.6345 12.1108 12.8726 12.8726C12.1108 13.6345 11.0774 14.0625 10 14.0625ZM9.375 2.8125V1.25C9.375 1.08424 9.44085 0.925268 9.55806 0.808058C9.67527 0.690848 9.83424 0.625 10 0.625C10.1658 0.625 10.3247 0.690848 10.4419 0.808058C10.5592 0.925268 10.625 1.08424 10.625 1.25V2.8125C10.625 2.97826 10.5592 3.13723 10.4419 3.25444C10.3247 3.37165 10.1658 3.4375 10 3.4375C9.83424 3.4375 9.67527 3.37165 9.55806 3.25444C9.44085 3.13723 9.375 2.97826 9.375 2.8125ZM3.36719 4.25781C3.29891 4.20177 3.24312 4.13206 3.2034 4.05316C3.16369 3.97426 3.14093 3.88792 3.1366 3.79969C3.13227 3.71147 3.14645 3.62331 3.17824 3.5409C3.21004 3.45849 3.25873 3.38365 3.32119 3.32119C3.38365 3.25873 3.45849 3.21004 3.5409 3.17824C3.62331 3.14645 3.71147 3.13227 3.79969 3.1366C3.88792 3.14093 3.97426 3.16369 4.05316 3.2034C4.13206 3.24312 4.20177 3.29891 4.25781 3.36719L5.35937 4.47656C5.47626 4.59373 5.5419 4.75247 5.5419 4.91797C5.5419 5.08347 5.47626 5.24221 5.35937 5.35937C5.24123 5.47439 5.08285 5.53874 4.91797 5.53874C4.75308 5.53874 4.59471 5.47439 4.47656 5.35937L3.36719 4.25781ZM2.8125 10.625H1.25C1.08424 10.625 0.925268 10.5592 0.808058 10.4419C0.690848 10.3247 0.625 10.1658 0.625 10C0.625 9.83424 0.690848 9.67527 0.808058 9.55806C0.925268 9.44085 1.08424 9.375 1.25 9.375H2.8125C2.97826 9.375 3.13723 9.44085 3.25444 9.55806C3.37165 9.67527 3.4375 9.83424 3.4375 10C3.4375 10.1658 3.37165 10.3247 3.25444 10.4419C3.13723 10.5592 2.97826 10.625 2.8125 10.625ZM5.35937 14.6406C5.47626 14.7578 5.5419 14.9165 5.5419 15.082C5.5419 15.2475 5.47626 15.4063 5.35937 15.5234L4.25781 16.6328C4.13784 16.7475 3.97846 16.8118 3.8125 16.8125C3.64685 16.8102 3.48801 16.7462 3.36719 16.6328C3.24982 16.5143 3.18398 16.3543 3.18398 16.1875C3.18398 16.0207 3.24982 15.8607 3.36719 15.7422L4.47656 14.6406C4.59373 14.5237 4.75247 14.4581 4.91797 14.4581C5.08347 14.4581 5.24221 14.5237 5.35937 14.6406ZM10.625 17.1875V18.75C10.625 18.9158 10.5592 19.0747 10.4419 19.1919C10.3247 19.3092 10.1658 19.375 10 19.375C9.83424 19.375 9.67527 19.3092 9.55806 19.1919C9.44085 19.0747 9.375 18.9158 9.375 18.75V17.1875C9.375 17.0217 9.44085 16.8628 9.55806 16.7456C9.67527 16.6283 9.83424 16.5625 10 16.5625C10.1658 16.5625 10.3247 16.6283 10.4419 16.7456C10.5592 16.8628 10.625 17.0217 10.625 17.1875ZM16.6328 15.7422C16.7502 15.8607 16.816 16.0207 16.816 16.1875C16.816 16.3543 16.7502 16.5143 16.6328 16.6328C16.512 16.7462 16.3532 16.8102 16.1875 16.8125C16.0215 16.8118 15.8622 16.7475 15.7422 16.6328L14.6406 15.5234C14.5329 15.4045 14.475 15.2488 14.479 15.0884C14.4829 14.928 14.5484 14.7753 14.6618 14.6618C14.7753 14.5484 14.928 14.4829 15.0884 14.479C15.2488 14.475 15.4045 14.5329 15.5234 14.6406L16.6328 15.7422ZM19.375 10C19.375 10.1658 19.3092 10.3247 19.1919 10.4419C19.0747 10.5592 18.9158 10.625 18.75 10.625H17.1875C17.0217 10.625 16.8628 10.5592 16.7456 10.4419C16.6283 10.3247 16.5625 10.1658 16.5625 10C16.5625 9.83424 16.6283 9.67527 16.7456 9.55806C16.8628 9.44085 17.0217 9.375 17.1875 9.375H18.75C18.9158 9.375 19.0747 9.44085 19.1919 9.55806C19.3092 9.67527 19.375 9.83424 19.375 10ZM14.6406 5.35937C14.5237 5.24221 14.4581 5.08347 14.4581 4.91797C14.4581 4.75247 14.5237 4.59373 14.6406 4.47656L15.7422 3.36719C15.8636 3.26752 16.0178 3.21659 16.1747 3.2243C16.3316 3.232 16.48 3.2978 16.5911 3.40888C16.7022 3.51997 16.768 3.6684 16.7757 3.82531C16.7834 3.98221 16.7325 4.13638 16.6328 4.25781L15.5234 5.35937C15.4053 5.47439 15.2469 5.53874 15.082 5.53874C14.9171 5.53874 14.7588 5.47439 14.6406 5.35937Z" fill="white"/>
</g>
<defs>
<clipPath id="clip0_2195_4599">
<rect width="20" height="20" fill="white"/>
</clipPath>
</defs>
</svg>
